<svg xmlns="http://www.w3.org/2000/svg" aria-hidden="true" style="position:absolute;width:0;height:0;overflow:hidden"><defs><symbol id="icon-feedback-arrow-right" viewBox="0 0 32 32"><path d="m19.609 16.943-5.333 5.333a1.333 1.333 0 0 1-1.884-1.886l4.39-4.39-4.391-4.391a1.333 1.333 0 1 1 1.885-1.885l5.334 5.334a1.332 1.332 0 0 1 0 1.886z"/></symbol><symbol id="icon-feedback-arrow-left" viewBox="0 0 32 32"><path d="M18.667 22.667c-.368 0-.701-.149-.943-.391l-5.333-5.333a1.332 1.332 0 0 1 0-1.886l5.333-5.333a1.333 1.333 0 1 1 1.885 1.885L15.218 16l4.391 4.391a1.333 1.333 0 0 1-.943 2.276z"/></symbol><symbol id="icon-quotes" viewBox="0 0 46 32"><path fill="#5d6afb" d="M10.035 11.417c5.518 0 9.99 4.473 9.99 9.99s-4.473 9.99-9.99 9.99-9.99-4.473-9.99-9.99L0 19.98C0 8.945 8.946 0 19.98 0v5.709a14.182 14.182 0 0 0-10.092 4.18 14.553 14.553 0 0 0-1.42 1.651 10.1 10.1 0 0 1 1.566-.122zm25.689 0c5.517 0 9.99 4.473 9.99 9.99s-4.473 9.99-9.99 9.99-9.99-4.473-9.99-9.99l-.045-1.427C25.689 8.945 34.634 0 45.67 0v5.709a14.182 14.182 0 0 0-10.092 4.18 14.453 14.453 0 0 0-1.42 1.651 10.1 10.1 0 0 1 1.566-.122z" style="fill:var(--color1, #5d6afb)"/></symbol></defs></svg>